<?xml version="1.0" standalone="no"?>
<!DOCTYPE svg PUBLIC "-//W3C//DTD SVG 20010904//EN"
 "http://www.w3.org/TR/2001/REC-SVG-20010904/DTD/svg10.dtd">
<svg version="1.0" xmlns="http://www.w3.org/2000/svg"
 width="2048.000000pt" height="2048.000000pt" viewBox="0 0 2048.000000 2048.000000"
 preserveAspectRatio="xMidYMid meet">
<metadata>
Created by potrace 1.16, written by Peter Selinger 2001-2019
</metadata>
<g transform="translate(0.000000,2048.000000) scale(0.100000,-0.100000)"
fill="#e84416" stroke="none">
<path d="M12495 19881 c-193 -52 -466 -118 -715 -171 -19 -4 -87 -22 -150 -39
-63 -17 -205 -51 -315 -76 -215 -48 -786 -205 -950 -260 -311 -105 -477 -165
-530 -192 -33 -17 -119 -51 -190 -76 -133 -46 -164 -58 -610 -241 -391 -161
-778 -352 -1265 -626 -52 -30 -156 -86 -230 -125 -74 -39 -196 -106 -270 -150
-74 -43 -182 -106 -240 -140 -58 -34 -129 -76 -157 -93 -29 -18 -77 -46 -105
-64 -203 -122 -346 -203 -493 -281 -93 -49 -213 -116 -266 -148 -52 -32 -113
-66 -134 -75 -21 -9 -109 -57 -194 -107 -86 -50 -203 -117 -261 -150 -58 -33
-130 -76 -160 -97 -30 -20 -107 -65 -170 -100 -186 -102 -388 -218 -583 -333
-100 -60 -208 -122 -239 -138 -78 -39 -121 -79 -164 -152 -21 -34 -53 -84 -73
-112 -19 -27 -54 -84 -77 -125 -22 -41 -78 -136 -124 -210 -45 -74 -125 -209
-178 -300 -52 -91 -102 -176 -112 -190 -9 -14 -51 -81 -92 -150 -41 -69 -112
-183 -158 -255 -46 -71 -101 -161 -123 -200 -22 -38 -81 -137 -132 -220 -51
-82 -165 -274 -255 -425 -90 -151 -178 -297 -195 -325 -68 -104 -160 -253
-203 -330 -25 -44 -66 -111 -92 -150 -26 -38 -71 -113 -100 -165 -29 -52 -74
-129 -98 -170 -25 -41 -80 -133 -123 -205 -42 -71 -109 -179 -147 -240 -39
-60 -140 -232 -225 -382 -85 -149 -173 -298 -195 -330 -147 -216 -150 -181 99
-1053 34 -118 69 -246 79 -285 140 -545 164 -635 210 -790 21 -71 45 -162 54
-202 10 -40 35 -130 57 -200 22 -70 55 -186 73 -258 19 -71 60 -218 91 -325
32 -107 78 -271 102 -365 106 -399 146 -551 194 -739 27 -110 63 -241 79 -290
16 -50 44 -147 63 -216 19 -69 53 -190 76 -270 23 -80 60 -208 82 -285 22 -77
51 -174 64 -215 13 -41 36 -127 50 -190 15 -63 41 -167 60 -230 69 -235 84
-289 134 -465 27 -99 69 -252 91 -340 23 -88 52 -194 65 -235 30 -94 117 -415
174 -645 85 -335 136 -476 189 -513 37 -26 1132 -572 1147 -572 2 0 167 -85
367 -188 200 -103 379 -194 398 -201 19 -8 96 -45 170 -83 74 -37 322 -161
550 -274 228 -113 441 -221 472 -241 32 -19 151 -79 265 -135 115 -55 489
-239 833 -410 344 -171 738 -366 875 -433 138 -67 375 -184 528 -260 343 -170
333 -169 560 -57 78 38 153 73 167 77 14 4 82 32 152 61 70 30 130 54 135 54
9 0 289 130 364 170 30 16 108 50 172 75 64 24 141 57 169 71 101 51 354 166
441 199 48 19 138 59 200 89 268 129 694 320 972 436 50 20 123 54 163 74 98
49 325 150 443 197 53 20 132 55 175 77 113 57 295 139 394 177 47 18 175 77
285 130 110 53 247 116 305 140 58 24 175 77 260 118 85 42 223 105 305 140
83 36 232 104 332 151 101 48 222 100 270 117 49 17 115 45 147 61 32 16 98
45 145 63 47 18 138 59 201 91 63 33 184 90 268 128 194 88 234 137 354 441
27 69 118 274 193 435 87 186 310 693 340 774 14 37 41 98 60 136 20 39 60
130 89 203 56 136 105 247 246 547 45 96 97 213 117 260 19 47 61 141 93 210
302 649 584 1396 705 1865 14 55 46 163 70 240 24 77 50 172 59 210 9 39 30
126 47 195 17 69 35 148 39 175 5 28 20 104 33 170 14 66 35 174 47 240 72
400 84 472 110 695 18 147 40 321 55 430 9 58 15 128 15 155 0 28 6 113 15
190 8 77 19 228 24 335 6 107 18 251 26 320 17 134 14 170 -13 170 -21 0 -127
-116 -201 -220 -30 -41 -89 -112 -132 -157 -42 -45 -93 -102 -111 -125 -436
-546 -696 -866 -838 -1032 -41 -48 -100 -118 -130 -156 -30 -37 -124 -150
-207 -252 -84 -101 -181 -220 -215 -265 -63 -80 -197 -239 -306 -362 -31 -35
-92 -109 -137 -164 -44 -56 -99 -125 -123 -154 -23 -30 -59 -75 -80 -102 -20
-26 -73 -92 -117 -145 -44 -54 -105 -128 -135 -166 -30 -37 -109 -133 -176
-212 -67 -78 -157 -188 -200 -244 -43 -55 -113 -140 -154 -188 -41 -49 -93
-112 -115 -141 -83 -110 -298 -361 -328 -382 -17 -12 -72 -31 -126 -43 -53
-12 -152 -35 -221 -52 -124 -30 -408 -79 -570 -98 -111 -14 -232 -34 -470 -81
-108 -21 -236 -43 -285 -49 -111 -14 -292 -43 -495 -80 -85 -16 -202 -36 -260
-45 -118 -19 -304 -52 -365 -65 -58 -12 -255 -44 -560 -89 -33 -5 -90 -17
-126 -27 -132 -36 -161 4 -126 173 14 65 30 150 35 188 6 39 16 102 22 140 5
39 17 120 26 180 16 116 35 237 59 370 19 110 43 264 55 360 14 121 37 259 60
365 24 107 51 256 85 470 80 505 38 431 512 901 960 952 1036 1053 1156 1529
31 127 31 480 -1 625 -12 55 -29 131 -37 169 -55 248 -108 270 -246 104 -28
-35 -136 -152 -240 -260 -198 -208 -209 -224 -209 -314 0 -154 -66 -366 -152
-492 -16 -23 -716 -730 -1555 -1570 -839 -840 -1587 -1592 -1662 -1672 -261
-280 -379 -375 -546 -439 -415 -160 -688 -69 -1126 376 -339 344 -435 598
-360 955 53 248 146 363 866 1067 127 123 302 299 390 390 88 91 268 272 400
402 132 130 310 308 395 395 85 88 238 240 340 339 102 99 228 225 280 280
185 196 846 848 919 907 270 217 527 305 735 252 360 -91 386 -137 184 -324
-209 -193 -1606 -1600 -1679 -1690 -227 -279 -67 -645 281 -645 174 0 82 -81
1149 1005 321 327 880 892 1242 1255 1224 1229 1198 1201 1221 1332 49 288
-243 570 -470 454 -87 -45 -487 -427 -909 -870 -89 -94 -97 -94 -218 -15 -612
401 -1451 341 -2018 -143 -247 -210 -283 -230 -570 -323 -103 -34 -211 -72
-240 -84 -28 -13 -83 -30 -122 -39 -38 -10 -241 -73 -450 -142 -507 -166 -960
-312 -1012 -325 -23 -6 -82 -24 -132 -40 -144 -48 -167 -28 -157 134 3 56 10
178 15 271 5 94 14 206 20 250 22 170 47 425 70 735 11 143 29 321 56 575 8
72 19 186 25 255 38 440 55 581 76 626 28 58 164 201 566 594 210 206 477 467
592 580 116 113 506 500 867 860 362 360 860 854 1106 1097 1483 1465 1498
1481 1467 1530 -17 27 -48 25 -199 -16z m-1926 -1185 c22 -26 -29 -115 -94
-166 -32 -25 -135 -128 -230 -230 -95 -102 -201 -212 -236 -244 -35 -33 -290
-283 -566 -555 -275 -273 -611 -600 -745 -727 -138 -130 -273 -268 -309 -314
-126 -163 -161 -124 -121 135 6 39 18 133 27 210 8 77 22 187 30 245 8 58 15
126 15 151 0 26 5 71 11 100 5 30 16 106 24 169 43 355 50 371 195 437 102 47
185 86 380 181 91 44 206 94 255 112 50 18 158 67 240 108 172 87 452 190 872
321 73 23 151 50 175 61 52 23 62 24 77 6z m-2895 -1332 c27 -26 18 -161 -39
-629 -8 -66 -15 -138 -15 -159 0 -22 -7 -80 -16 -130 -38 -222 -45 -267 -54
-371 -5 -60 -14 -139 -20 -175 -5 -36 -10 -71 -10 -78 -1 -53 -104 -78 -217
-52 -24 6 -75 14 -115 20 -40 5 -111 16 -158 24 -47 8 -137 22 -200 31 -63 9
-151 23 -195 30 -44 8 -138 24 -210 35 -71 11 -173 27 -225 36 -52 8 -160 29
-240 46 -205 44 -222 47 -349 57 -188 16 -182 70 21 175 34 18 115 65 178 106
63 40 178 107 255 150 77 42 190 107 250 145 61 38 148 89 195 115 47 25 150
84 230 131 80 48 177 103 215 124 39 21 82 47 96 56 25 18 59 36 359 199 74
40 153 86 175 101 46 32 67 35 89 13z m-2769 -1854 c61 -11 151 -27 200 -34
118 -19 247 -41 425 -72 80 -14 174 -30 210 -34 36 -5 146 -22 245 -38 99 -17
230 -38 290 -47 123 -18 376 -66 505 -95 47 -10 116 -22 154 -25 165 -14 184
-86 56 -220 -31 -33 -81 -94 -112 -135 -31 -41 -84 -106 -118 -145 -34 -38
-92 -108 -128 -155 -36 -46 -108 -136 -161 -198 -53 -63 -116 -139 -140 -170
-76 -96 -241 -293 -320 -380 -84 -93 -249 -307 -660 -857 -74 -99 -169 -220
-210 -270 -42 -49 -98 -119 -126 -155 -57 -75 -133 -166 -224 -265 -35 -38
-89 -109 -121 -157 -72 -109 -154 -201 -177 -196 -42 8 -42 6 17 758 5 69 12
195 15 280 3 85 12 229 20 320 31 351 46 552 55 738 5 106 12 203 15 215 3 12
10 126 15 252 12 317 35 638 64 900 24 222 21 219 211 185z m-915 -949 c13
-25 13 -188 0 -266 -6 -33 -15 -163 -20 -288 -5 -125 -12 -232 -15 -237 -3 -4
-9 -134 -15 -289 -5 -154 -14 -320 -20 -368 -5 -48 -14 -140 -20 -203 -5 -63
-14 -162 -19 -220 -20 -217 -41 -520 -46 -675 -3 -88 -10 -191 -15 -230 -5
-38 -10 -131 -10 -205 -3 -459 30 -438 -490 -315 -80 19 -183 42 -230 50 -47
9 -114 22 -150 30 -216 47 -352 75 -400 81 -357 44 -436 101 -340 244 20 30
81 132 135 225 54 94 128 217 164 275 113 183 342 562 384 635 22 39 70 117
107 175 101 157 142 226 194 320 25 47 73 128 106 180 33 52 79 128 102 168
47 81 109 179 240 377 86 131 178 292 251 440 56 115 83 139 107 96z m3360
-286 c11 -13 7 -52 -20 -218 -22 -138 -35 -257 -40 -377 -4 -96 -13 -224 -19
-285 -21 -213 -32 -322 -46 -475 -8 -85 -21 -213 -30 -285 -8 -71 -19 -188
-25 -260 -23 -278 -3 -254 -301 -356 -129 -44 -270 -93 -314 -108 -122 -44
-803 -265 -945 -306 -201 -59 -371 -116 -422 -141 -156 -78 -149 46 12 220 37
41 74 84 80 97 7 13 32 49 56 79 24 30 63 80 86 111 44 58 281 354 407 509 38
47 120 150 181 230 61 80 151 194 198 254 48 60 132 166 187 236 55 69 145
180 200 245 56 66 139 167 185 225 46 58 112 139 146 180 78 93 259 325 297
380 38 57 100 78 127 45z m1834 -2211 c45 -17 18 -71 -70 -137 -129 -97 -2022
-2001 -2129 -2141 -71 -93 -215 -359 -253 -466 -16 -47 -44 -119 -60 -161 -84
-210 -91 -585 -16 -849 23 -81 187 -387 250 -465 60 -76 65 -101 33 -154 -21
-34 -193 -210 -264 -270 -22 -18 -62 -60 -90 -92 -27 -32 -113 -125 -190 -207
-77 -81 -198 -213 -270 -293 -71 -79 -174 -187 -227 -240 -54 -54 -98 -102
-98 -107 0 -14 -94 -82 -112 -82 -26 0 -48 36 -59 96 -6 32 -25 104 -41 159
-17 55 -41 145 -54 200 -14 55 -36 134 -49 175 -31 93 -138 466 -266 925 -17
61 -60 205 -94 320 -35 116 -80 273 -101 350 -20 77 -66 236 -100 353 -35 117
-64 217 -64 224 0 6 -20 74 -45 152 -24 78 -56 188 -70 246 -14 58 -44 159
-65 225 -21 67 -53 176 -70 243 -17 68 -47 173 -66 235 -40 130 -51 205 -35
234 12 23 186 100 314 140 42 13 99 33 125 44 26 11 110 38 187 59 77 21 192
58 255 82 101 39 427 148 805 268 423 134 561 179 730 235 224 74 654 213 775
250 92 28 606 194 945 305 116 38 253 81 305 96 52 15 115 33 140 40 52 15 72
16 94 8z m-6859 -1249 c164 -23 361 -61 600 -114 118 -27 267 -58 670 -141
244 -51 240 -46 329 -397 35 -136 87 -324 115 -418 163 -529 186 -608 261
-890 39 -146 152 -536 227 -780 30 -99 63 -211 73 -250 10 -38 41 -140 68
-225 27 -85 59 -195 72 -245 12 -49 41 -155 65 -235 24 -80 62 -215 85 -300
23 -85 59 -211 81 -280 22 -69 54 -179 70 -245 17 -66 48 -176 70 -245 61
-195 58 -221 -33 -319 -40 -42 -135 -149 -210 -237 -75 -87 -180 -208 -234
-269 -53 -60 -126 -150 -163 -200 -37 -49 -108 -135 -157 -190 -49 -55 -105
-120 -124 -145 -19 -25 -62 -76 -96 -115 -33 -38 -78 -92 -99 -120 -88 -118
-173 -112 -186 12 -4 38 -21 119 -38 179 -36 125 -52 184 -74 269 -9 33 -36
130 -61 215 -25 85 -59 209 -75 275 -17 66 -41 154 -54 195 -13 41 -41 140
-62 220 -36 139 -58 219 -132 470 -18 63 -33 122 -33 132 0 10 -13 59 -29 110
-17 51 -46 156 -66 233 -20 77 -50 181 -66 230 -15 50 -45 151 -64 225 -20 74
-54 193 -76 264 -22 71 -53 188 -70 260 -17 72 -51 196 -74 276 -24 80 -51
174 -60 210 -30 115 -116 431 -162 595 -25 88 -72 259 -103 380 -85 326 -143
535 -215 778 -36 120 -65 226 -65 237 0 11 -11 57 -24 102 -84 284 -126 443
-126 471 0 53 18 55 245 22z m15680 -1009 c18 -26 17 -32 -33 -211 -28 -102
-71 -284 -122 -515 -32 -143 -160 -591 -275 -960 -18 -58 -43 -145 -55 -193
-36 -136 -66 -165 -190 -182 -52 -7 -131 -22 -175 -34 -44 -12 -120 -26 -170
-31 -49 -6 -97 -13 -105 -15 -8 -3 -64 -11 -125 -20 -60 -8 -141 -19 -180 -24
-71 -10 -174 -31 -277 -57 -185 -45 -223 27 -84 161 46 44 96 100 111 125 15
25 40 59 55 75 15 17 62 75 104 130 138 182 195 252 462 560 38 44 116 138
174 209 312 383 471 572 623 739 70 77 116 138 132 172 41 93 96 123 130 71z
m-6858 -1202 c16 -25 16 -31 -15 -158 -18 -72 -41 -210 -52 -306 -18 -159 -31
-238 -76 -485 -19 -107 -40 -225 -63 -370 -34 -207 -42 -247 -67 -355 -26
-109 -46 -230 -69 -414 -8 -60 -25 -170 -39 -245 -31 -176 -50 -296 -81 -511
-73 -504 -100 -630 -140 -656 -31 -20 -189 0 -355 46 -58 16 -145 37 -195 45
-49 9 -182 38 -295 65 -113 26 -261 58 -330 70 -143 25 -412 79 -545 110 -110
25 -289 63 -450 96 -66 14 -165 36 -220 49 -142 34 -315 72 -484 105 -80 16
-227 47 -326 69 -99 21 -205 42 -235 46 -85 10 -534 104 -595 124 -16 5 -64
17 -105 25 -164 35 -180 72 -73 171 41 38 103 104 137 145 35 41 91 104 126
140 510 519 688 709 746 793 54 81 120 73 217 -24 254 -254 856 -450 1202
-390 444 77 764 264 1205 702 424 421 987 995 1015 1034 78 109 127 132 162
79z m5983 -1564 c26 -26 25 -56 -5 -108 -26 -45 -119 -251 -190 -417 -24 -55
-66 -149 -95 -210 -29 -60 -65 -139 -80 -175 -16 -36 -52 -117 -80 -180 -29
-63 -79 -176 -112 -250 -32 -74 -73 -159 -89 -187 -16 -29 -47 -97 -69 -150
-67 -166 -97 -237 -117 -278 -11 -22 -33 -77 -48 -123 -58 -178 -137 -132
-171 99 -9 62 -20 124 -25 137 -5 12 -27 103 -49 200 -22 97 -54 229 -70 292
-34 137 -71 295 -110 480 -28 131 -75 342 -105 466 -38 155 -20 209 74 218 31
4 88 13 126 21 96 19 311 58 565 101 52 8 118 20 145 25 78 15 343 47 468 58
9 0 26 -8 37 -19z m-2102 -337 c13 -11 30 -50 43 -98 11 -44 30 -111 40 -150
11 -38 31 -126 45 -195 14 -69 47 -215 73 -325 27 -110 56 -236 65 -280 10
-44 26 -116 36 -160 11 -44 28 -126 39 -183 11 -56 38 -173 60 -260 40 -158
46 -181 123 -507 71 -305 53 -330 -202 -273 -25 5 -88 16 -140 24 -127 18
-223 33 -290 45 -169 31 -233 41 -305 50 -44 5 -114 16 -155 23 -41 8 -120 22
-175 31 -55 9 -179 31 -275 50 -96 19 -265 48 -375 65 -110 16 -238 37 -285
45 -226 40 -314 55 -420 70 -63 9 -153 22 -200 30 -47 8 -146 24 -220 35 -74
11 -173 27 -220 34 -110 19 -321 53 -570 91 -58 9 -149 25 -203 36 -54 10
-120 19 -145 19 -137 0 -175 42 -152 169 5 31 14 90 19 131 6 41 17 104 26
140 44 185 68 320 99 565 19 150 53 194 156 210 25 3 79 13 120 20 41 8 120
21 175 29 252 37 391 60 525 86 80 16 195 36 255 45 255 38 378 58 515 85 80
15 181 33 225 40 44 6 123 18 175 25 184 27 286 45 405 69 125 26 281 51 375
62 59 6 175 26 280 49 151 32 191 39 295 55 145 23 140 23 163 3z m-8484
-1433 c14 -5 65 -16 113 -24 166 -27 368 -66 498 -96 72 -16 189 -40 260 -54
72 -14 173 -35 225 -46 110 -24 306 -63 435 -86 149 -27 497 -102 715 -154
113 -27 261 -58 330 -70 69 -12 206 -42 305 -65 99 -24 207 -49 240 -54 169
-29 287 -53 495 -102 74 -17 145 -33 158 -35 71 -13 82 -94 27 -198 -19 -36
-46 -103 -61 -148 -15 -46 -41 -119 -59 -163 -18 -44 -48 -123 -65 -175 -18
-52 -46 -129 -63 -170 -16 -41 -58 -154 -92 -250 -35 -96 -95 -265 -135 -375
-39 -110 -99 -279 -132 -375 -33 -96 -93 -258 -133 -360 -86 -217 -198 -523
-231 -631 -27 -86 -56 -120 -105 -121 -37 -1 -38 -1 -136 147 -36 55 -91 132
-122 171 -31 39 -104 134 -163 210 -266 344 -336 434 -398 509 -37 44 -120
152 -186 240 -65 88 -145 194 -178 236 -34 42 -113 143 -176 224 -63 82 -142
183 -175 224 -33 42 -78 101 -100 131 -22 30 -82 108 -135 174 -52 65 -128
164 -168 220 -80 110 -169 225 -332 430 -57 72 -127 160 -155 195 -27 35 -87
111 -133 168 -46 58 -97 128 -114 156 -16 29 -51 75 -78 102 -75 78 -143 199
-123 218 10 11 118 8 147 -3z m-976 -36 c13 -9 56 -59 96 -112 40 -54 137
-180 217 -282 79 -102 155 -201 169 -220 13 -19 72 -93 130 -165 130 -160 229
-288 295 -380 28 -38 115 -150 193 -249 180 -224 265 -333 324 -416 43 -62
270 -352 452 -580 47 -58 186 -240 309 -405 124 -165 254 -333 289 -373 59
-66 98 -142 98 -190 0 -20 -54 -13 -101 11 -24 13 -62 33 -84 45 -22 12 -98
49 -170 83 -231 109 -718 348 -785 384 -62 34 -840 421 -1133 563 -76 37 -211
104 -300 150 -186 95 -669 335 -1029 510 -330 161 -327 156 -180 319 127 141
352 397 477 543 55 64 154 179 220 254 169 193 211 242 290 342 138 175 174
202 223 168z m5641 -915 c85 -19 247 -51 301 -59 30 -5 123 -20 205 -33 83
-14 186 -31 230 -37 182 -28 364 -57 475 -75 102 -17 261 -41 350 -54 36 -4
124 -20 195 -35 226 -46 422 -79 535 -91 67 -7 329 -48 515 -80 44 -7 143 -23
220 -35 131 -20 235 -41 365 -74 30 -8 107 -22 171 -31 126 -19 145 -25 136
-47 -7 -20 -169 -110 -247 -137 -36 -13 -116 -49 -178 -82 -62 -32 -201 -95
-310 -140 -108 -44 -224 -96 -257 -114 -33 -18 -100 -49 -148 -69 -49 -20
-120 -52 -158 -71 -38 -19 -104 -49 -146 -66 -43 -17 -130 -54 -193 -83 -63
-29 -187 -86 -275 -126 -88 -40 -243 -111 -345 -158 -102 -47 -219 -99 -260
-117 -41 -18 -124 -56 -185 -85 -60 -28 -141 -64 -180 -80 -38 -15 -126 -54
-195 -85 -298 -136 -578 -263 -755 -342 -104 -46 -237 -109 -295 -139 -58 -29
-159 -77 -225 -105 -66 -28 -151 -65 -190 -82 -38 -16 -99 -47 -135 -68 -36
-20 -85 -43 -110 -49 -25 -6 -52 -13 -61 -16 -60 -17 -59 65 2 218 22 54 58
155 81 226 22 70 58 172 80 227 44 109 82 213 193 525 40 113 101 282 135 375
34 94 86 240 116 325 63 178 148 402 198 517 18 43 56 151 85 240 75 236 92
250 260 212z"/>
<path d="M15477 17845 c-312 -38 -613 -175 -885 -403 -224 -187 -3067 -3056
-3067 -3094 0 -44 41 -58 191 -68 152 -9 401 -47 562 -86 127 -30 144 -25 222
67 122 145 2565 2592 2654 2659 179 135 487 204 676 151 257 -72 431 -197 703
-499 266 -297 320 -412 321 -682 1 -350 -79 -480 -640 -1031 -389 -383 -794
-790 -794 -799 0 -4 -60 -62 -133 -129 -74 -66 -255 -245 -403 -398 -148 -153
-404 -410 -569 -572 -360 -353 -367 -365 -307 -516 66 -168 94 -453 66 -690
-5 -43 -2 -53 15 -69 28 -25 44 -14 162 115 52 56 387 395 744 753 358 358
719 723 802 811 83 88 348 356 589 595 1033 1023 1041 1034 1181 1556 55 208
69 526 29 674 -114 418 -249 651 -566 974 -462 470 -759 639 -1190 676 -220
18 -246 19 -363 5z"/>
</g>
</svg>
